<svg xmlns="http://www.w3.org/2000/svg" xmlns:xlink="http://www.w3.org/1999/xlink" version="1.1" id="Layer_1" x="0px" y="0px" width="100px" height="100px" viewBox="5.0 -10.0 100.0 135.0"  xml:space="preserve">
<g>
	<path d="M83,56v4.499c3.299,0,5.998,2.7,5.998,6c0,3.301-2.699,6-5.998,6v4.5c0,4.949-4.051,9-9,9H26.001c-4.949,0-9-4.051-9-9   v-4.5c-3.3,0-6-2.699-6-6c0-3.3,2.7-6,6-6v-3h-1.5c-0.899,0-1.5-0.6-1.5-1.499c0-0.9,0.601-1.5,1.5-1.5h1.5V50h-1.5   c-0.899,0-1.5-0.601-1.5-1.5s0.601-1.5,1.5-1.5h1.5c0-18.149,14.85-32.999,32.999-32.999c18.15,0,33,14.85,33,32.999h1.5   c0.898,0,1.5,0.601,1.5,1.5S85.398,50,84.5,50H83v3h1.5c0.898,0,1.5,0.6,1.5,1.5c0,0.899-0.602,1.5-1.5,1.5H83z M14.001,66.499   c0,1.65,1.35,3,3,3h9.75c-2.25-0.3-3.75-2.1-3.75-4.5c0-0.899-0.6-1.5-1.5-1.5h-4.5C15.351,63.499,14.001,64.85,14.001,66.499z    M20.001,47H80c0-16.499-13.5-29.999-30-29.999C33.501,17.001,20.001,30.501,20.001,47z M20.001,53.6c0.75-0.3,1.8-0.6,3-0.6   c3,0,4.5,1.5,6,1.5s3-1.5,6-1.5s4.5,1.5,5.999,1.5c1.5,0,3-1.5,6-1.5s4.5,1.5,6,1.5s3-1.5,6-1.5s4.5,1.5,6,1.5s3-1.5,6-1.5   s4.5,1.5,6,1.5c0.9,0,1.799-0.45,3-0.9V50H20.001V53.6z M41,64.999c0-2.549,1.95-4.5,4.5-4.5H80v-3.75   c-1.051,0.451-1.951,0.75-3,0.75c-2.25,0-3.75-1.499-6-1.499s-3.75,1.499-6,1.499S61.25,56,59,56s-3.75,1.499-6,1.499   c-2.25,0-3.75-1.499-6-1.499s-3.75,1.499-6,1.499c-2.249,0-3.749-1.499-5.999-1.499s-3.75,1.499-6,1.499s-3.75-1.499-6-1.499   c-1.2,0-2.1,0.45-3,0.749v3.75h1.5c2.55,0,4.5,1.951,4.5,4.5c0,0.9,0.6,1.5,1.5,1.5s1.5-0.6,1.5-1.5c0-2.549,1.949-4.5,4.5-4.5   c2.549,0,4.5,1.951,4.5,4.5c0,0.9,0.6,1.5,1.5,1.5C40.401,66.499,41,65.899,41,64.999z M80,76.999v-4.5H20.001v4.5c0,3.3,2.7,6,6,6   H74C77.299,82.999,80,80.299,80,76.999z M28.251,69.499h10.5c-2.25-0.3-3.75-2.1-3.75-4.5c0-0.899-0.601-1.5-1.5-1.5   c-0.9,0-1.5,0.601-1.5,1.5C32.001,67.399,30.351,69.199,28.251,69.499z M30.501,35.751c-0.9,0-1.5-0.601-1.5-1.5   c0-0.9,0.6-1.5,1.5-1.5h1.5c0.899,0,1.5,0.6,1.5,1.5c0,0.899-0.601,1.5-1.5,1.5H30.501z M39.501,31.251c-0.9,0-1.5-0.6-1.5-1.5   s0.6-1.5,1.5-1.5H41c0.9,0,1.5,0.6,1.5,1.5s-0.6,1.5-1.5,1.5H39.501z M39.501,41.001c-0.9,0-1.5-0.601-1.5-1.5   c0-0.9,0.6-1.5,1.5-1.5H41c0.9,0,1.5,0.6,1.5,1.5c0,0.899-0.6,1.5-1.5,1.5H39.501z M44,64.999c0,2.4-1.649,4.2-3.749,4.5H83   c1.648,0,3-1.35,3-3c0-1.649-1.352-3-3-3H45.5C44.601,63.499,44,64.1,44,64.999z M49.25,26.001c-0.899,0-1.5-0.6-1.5-1.5   s0.601-1.5,1.5-1.5h1.5c0.9,0,1.5,0.6,1.5,1.5s-0.6,1.5-1.5,1.5H49.25z M49.25,35.751c-0.899,0-1.5-0.601-1.5-1.5   c0-0.9,0.601-1.5,1.5-1.5h1.5c0.9,0,1.5,0.6,1.5,1.5c0,0.899-0.6,1.5-1.5,1.5H49.25z M59,31.251c-0.9,0-1.5-0.6-1.5-1.5   s0.6-1.5,1.5-1.5h1.5c0.9,0,1.5,0.6,1.5,1.5s-0.6,1.5-1.5,1.5H59z M59,41.001c-0.9,0-1.5-0.601-1.5-1.5c0-0.9,0.6-1.5,1.5-1.5h1.5   c0.9,0,1.5,0.6,1.5,1.5c0,0.899-0.6,1.5-1.5,1.5H59z M68,35.751c-0.9,0-1.5-0.601-1.5-1.5c0-0.9,0.6-1.5,1.5-1.5h1.5   c0.9,0,1.5,0.6,1.5,1.5c0,0.899-0.6,1.5-1.5,1.5H68z"/>
</g>
<!-- <text x="0.0" y="117.5" font-size="5.0" font-weight="bold" font-family="Helvetica Neue, Helvetica, Arial-Unicode, Arial, Sans-serif" fill="#000000">Created by Yorlmar Campos</text><text x="0.0" y="122.5" font-size="5.0" font-weight="bold" font-family="Helvetica Neue, Helvetica, Arial-Unicode, Arial, Sans-serif" fill="#000000">from the Noun Project</text> --></svg>